# xmcd
#
# Track frame offsets:
#	150
#	22444
#	39895
#	54845
#	69955
#	85404
#	102005
#	117582
#	133567
#	148467
#	163263
#	177873
#	192424
#	209883
#	227396
#	244054
#	261238
#	277726
#	293620
#	310517
#
# Disc length: 4390 seconds
#
# Revision: 1
# Processed by: cddbd v1.5.1PL0 Copyright (c) Steve Scherf et al.
# Submitted via: audiograbber 1.83.01
#
DISCID=24112414
DTITLE=Top20 4_2005 - Die deutsche Hitparade 2005-4
DYEAR=1900
DGENRE=Country
TTITLE0=Münchener Freiheit - Leuchtturm
TTITLE1=Michelle - Vielleicht nur einmal im Leben
TTITLE2=Tom Astor - Freunde für`s Leben
TTITLE3=Mary Roos - Samba
TTITLE4=Andreas Martin - Wir sind immer noch gut
TTITLE5=Heike Schäfer - Ein neuer Morgen beginnt
TTITLE6=Uwe Busse - Sommer `76
TTITLE7=Rosanna Rocci - Ciao Belle (Viva La Vita)
TTITLE8=Heintje Simons - Ich sag` Danke
TTITLE9=Vivian Lindt - Glaubst Du an Zauberei
TTITLE10=René Meyer - Nimm Dir, was Dein Herz begehrt
TTITLE11=Tommy Steiner - Wie kannst Du denn einfach so von mir gehen
TTITLE12=Petra Frey - Große Träume brauchen Zeit
TTITLE13=Leonard - Wann hab ich Dich verlorn
TTITLE14=Diana Sorbello - Spuren am Strand der Ewigkeit
TTITLE15=Raffaele - Engel weinen heimlich
TTITLE16=Tina York - Du bist Champagner für die Augen
TTITLE17=Xandra Hag - Zeit für den Sommer
TTITLE18=Kussgift - Doppelleben
TTITLE19=Michael Wendler - Wenn alle Stricke reißen
EXTD=
EXTT0=
EXTT1=
EXTT2=
EXTT3=
EXTT4=
EXTT5=
EXTT6=
EXTT7=
EXTT8=
EXTT9=
EXTT10=
EXTT11=
EXTT12=
EXTT13=
EXTT14=
EXTT15=
EXTT16=
EXTT17=
EXTT18=
EXTT19=
PLAYORDER=
